<svg viewBox="0 0 24 24" fill="none" xmlns="http://www.w3.org/2000/svg">
    <path d="M5.825 13.934L5.1 13.2452L5.825 13.934ZM8 9C8 6.791 9.791 5 12 5V3C8.686 3 6 5.686 6 9H8ZM8 11.756V9H6V11.756H8ZM6 16C6 15.466 6.208 14.982 6.55 14.623L5.1 13.245C4.419 13.962 4 14.933 4 16H6ZM7 16H6V18H7V16ZM17 16H7V18H17V16ZM18 16H17V18H18V16ZM17.45 14.623C17.792 14.982 18 15.466 18 16H20C20 14.933 19.581 13.962 18.9 13.245L17.45 14.623ZM16 9V11.756H18V9H16ZM12 5C14.209 5 16 6.791 16 9H18C18 5.686 15.314 3 12 3V5ZM18.9 13.245C18.292 12.605 18 12.158 18 11.756H16C16 13.05 16.891 14.034 17.45 14.623L18.9 13.245ZM4 16C4 17.105 4.895 18 6 18V16H4ZM18 18C19.105 18 20 17.105 20 16H18V18ZM6 11.756C6 12.158 5.708 12.605 5.1 13.245L6.55 14.623C7.109 14.034 8 13.05 8 11.756H6Z" fill="#000"/>
    <path d="M13.798 19.877C13.631 20.218 13.371 20.505 13.048 20.704C12.725 20.902 12.352 21.005 11.972 21C11.593 20.995 11.222 20.881 10.905 20.674C10.587 20.466 10.335 20.172 10.179 19.826" stroke="#000" stroke-width="2" stroke-linecap="round" stroke-linejoin="round"/>
    <path d="M12 3V4" stroke="#000" stroke-width="2" stroke-linecap="round" stroke-linejoin="round"/>
</svg>